<?xml version="1.0" encoding="utf-8"?>
<!-- Generator: Adobe Illustrator 15.0.0, SVG Export Plug-In . SVG Version: 6.00 Build 0)  -->
<!DOCTYPE svg PUBLIC "-//W3C//DTD SVG 1.1//EN" "http://www.w3.org/Graphics/SVG/1.1/DTD/svg11.dtd">
<svg version="1.1" id="Layer_1" xmlns="http://www.w3.org/2000/svg" xmlns:xlink="http://www.w3.org/1999/xlink" x="0px" y="0px"
	 width="52.8px" height="52.8px" viewBox="373.6 373.6 52.8 52.8" enable-background="new 373.6 373.6 52.8 52.8"
	 xml:space="preserve">
<path fill="#0077B7" d="M421.623,373.6h-43.247c-2.638,0-4.776,2.139-4.776,4.777v43.247c0,2.638,2.138,4.776,4.776,4.776h43.247
	c2.639,0,4.776-2.138,4.776-4.776v-43.247C426.4,375.739,424.262,373.6,421.623,373.6z M389.939,419.191
	c0,0.768-0.623,1.39-1.39,1.39h-5.917c-0.768,0-1.39-0.622-1.39-1.39v-24.802c0-0.768,0.623-1.39,1.39-1.39h5.917
	c0.768,0,1.39,0.623,1.39,1.39V419.191L389.939,419.191z M385.59,390.661c-3.104,0-5.621-2.517-5.621-5.621s2.517-5.621,5.621-5.621
	s5.621,2.517,5.621,5.621S388.695,390.661,385.59,390.661z M420.859,419.304c0,0.705-0.572,1.277-1.277,1.277h-6.35
	c-0.706,0-1.278-0.572-1.278-1.277V407.67c0-1.735,0.51-7.605-4.535-7.605c-3.912,0-4.706,4.017-4.865,5.82v13.419
	c0,0.705-0.572,1.277-1.278,1.277h-6.14c-0.706,0-1.278-0.572-1.278-1.277v-25.026c0-0.706,0.572-1.278,1.278-1.278h6.14
	c0.706,0,1.278,0.572,1.278,1.278v2.164c1.45-2.177,3.607-3.858,8.198-3.858c10.166,0,10.108,9.498,10.108,14.717L420.859,419.304
	L420.859,419.304z"/>
</svg>
