<?xml version="1.0" encoding="utf-8"?>
<!-- Generator: Adobe Illustrator 15.0.0, SVG Export Plug-In . SVG Version: 6.00 Build 0)  -->
<!DOCTYPE svg PUBLIC "-//W3C//DTD SVG 1.1//EN" "http://www.w3.org/Graphics/SVG/1.1/DTD/svg11.dtd">
<svg version="1.1" id="Layer_1" xmlns="http://www.w3.org/2000/svg" xmlns:xlink="http://www.w3.org/1999/xlink" x="0px" y="0px"
	 width="800px" height="800px" viewBox="0 0 800 800" enable-background="new 0 0 800 800" xml:space="preserve">
<path fill="#0077B7" d="M465.527,320H334.474C326.48,320,320,326.48,320,334.474v131.053c0,7.994,6.48,14.474,14.474,14.474h131.053
	c7.994,0,14.474-6.479,14.474-14.474V334.474C480,326.48,473.521,320,465.527,320z M369.511,458.154
	c0,2.327-1.885,4.212-4.212,4.212H347.37c-2.326,0-4.212-1.885-4.212-4.212v-75.158c0-2.326,1.886-4.212,4.212-4.212h17.929
	c2.327,0,4.212,1.886,4.212,4.212V458.154z M356.334,371.699c-9.407,0-17.033-7.625-17.033-17.033
	c0-9.407,7.626-17.033,17.033-17.033s17.033,7.626,17.033,17.033C373.367,364.074,365.742,371.699,356.334,371.699z
	 M463.209,458.494c0,2.139-1.734,3.872-3.873,3.872h-19.239c-2.139,0-3.873-1.733-3.873-3.872V423.24
	c0-5.259,1.543-23.045-13.743-23.045c-11.857,0-14.263,12.174-14.745,17.638v40.661c0,2.139-1.734,3.872-3.873,3.872h-18.607
	c-2.139,0-3.873-1.733-3.873-3.872v-75.837c0-2.138,1.734-3.873,3.873-3.873h18.607c2.139,0,3.873,1.734,3.873,3.873v6.557
	c4.396-6.598,10.931-11.691,24.843-11.691c30.807,0,30.631,28.782,30.631,44.596V458.494L463.209,458.494z"/>
</svg>
